Black Display Narrow — UC.ufo
<glyph name="A" format="1">
  <advance width="1152"/>
  <unicode hex="0041"/>
  <outline>
    <contour>
      <point x="-93" y="36" type="line"/>
      <point x="-95" y="0" type="line"/>
      <point x="302" y="0" type="line"/>
      <point x="307" y="36" type="line"/>
      <point x="131" y="93" type="line"/>
      <point x="503" y="1151" type="line"/>
      <point x="578" y="1397" type="line"/>
      <point x="535" y="1356" type="line"/>
      <point x="560" y="1082" type="line"/>
      <point x="678" y="73" type="line"/>
      <point x="545" y="38" type="line"/>
      <point x="540" y="0" type="line"/>
      <point x="1141" y="0" type="line"/>
      <point x="1145" y="38" type="line"/>
      <point x="1045" y="73" type="line"/>
      <point x="865" y="1489" type="line"/>
      <point x="568" y="1487" type="line"/>
      <point x="41" y="96" type="line"/>
    </contour>
    <contour>
      <point x="214" y="493" type="line"/>
      <point x="213" y="427" type="line"/>
      <point x="750" y="427" type="line"/>
      <point x="751" y="493" type="line"/>
    </contour>
    <contour>
      <point x="448" y="0" type="move" name="bottom"/>
    </contour>
    <contour>
      <point x="957" y="-2" type="move" name="ogonek"/>
    </contour>
    <contour>
      <point x="672" y="1486" type="move" name="top"/>
    </contour>
  </outline>
</glyph>
<glyph name="B" format="1">
  <advance width="1189"/>
  <unicode hex="0042"/>
  <outline>
    <contour>
      <point x="706" y="1486" type="move" name="top"/>
    </contour>
    <contour>
      <point x="485" y="0" type="move" name="bottom"/>
    </contour>
    <contour>
      <point x="-30" y="38" type="line"/>
      <point x="-35" y="0" type="line"/>
      <point x="248" y="0" type="line" smooth="yes"/>
      <point x="364" y="0"/>
      <point x="405" y="-21"/>
      <point x="597" y="-21" type="curve"/>
      <point x="911" y="-21"/>
      <point x="1162" y="117"/>
      <point x="1167" y="466" type="curve"/>
      <point x="1170" y="641"/>
      <point x="1061" y="778"/>
      <point x="837" y="778" type="curve"/>
      <point x="1060" y="817"/>
      <point x="1183" y="969"/>
      <point x="1187" y="1193" type="curve"/>
      <point x="1189" y="1343"/>
      <point x="1078" y="1502"/>
      <point x="773" y="1502" type="curve"/>
      <point x="577" y="1502"/>
      <point x="573" y="1488"/>
      <point x="453" y="1486" type="curve"/>
      <point x="170" y="1486" type="line"/>
      <point x="165" y="1450" type="line"/>
      <point x="277" y="1412" type="line"/>
      <point x="94" y="72" type="line"/>
    </contour>
    <contour>
      <point x="568" y="40" type="curve"/>
      <point x="482" y="40"/>
      <point x="442" y="65"/>
      <point x="338" y="94" type="curve"/>
      <point x="427" y="2" type="line"/>
      <point x="528" y="741" type="line"/>
      <point x="487" y="719" type="line"/>
      <point x="500" y="726"/>
      <point x="532" y="729"/>
      <point x="610" y="729" type="curve"/>
      <point x="733" y="729"/>
      <point x="825" y="655"/>
      <point x="822" y="483" type="curve"/>
      <point x="818" y="206"/>
      <point x="719" y="40"/>
    </contour>
    <contour>
      <point x="616" y="794" type="curve"/>
      <point x="528" y="794"/>
      <point x="524" y="792"/>
      <point x="508" y="796" type="curve"/>
      <point x="531" y="771" type="line"/>
      <point x="628" y="1476" type="line"/>
      <point x="499" y="1336" type="line"/>
      <point x="616" y="1437"/>
      <point x="616" y="1441"/>
      <point x="681" y="1441" type="curve"/>
      <point x="780" y="1441"/>
      <point x="861" y="1351"/>
      <point x="858" y="1184" type="curve"/>
      <point x="854" y="934"/>
      <point x="728" y="794"/>
    </contour>
  </outline>
</glyph>
<glyph name="C" format="1">
  <advance width="1133"/>
  <unicode hex="0043"/>
  <outline>
    <contour>
      <point x="792" y="1486" type="move" name="top"/>
    </contour>
    <contour>
      <point x="647" y="0" type="move" name="bottom"/>
    </contour>
    <contour>
      <point x="541" y="-24" type="curve"/>
      <point x="830" y="-24"/>
      <point x="921" y="59"/>
      <point x="1001" y="57" type="curve"/>
      <point x="1082" y="469" type="line"/>
      <point x="905" y="469" type="line"/>
      <point x="886" y="394"/>
      <point x="814" y="176"/>
      <point x="790" y="137" type="curve"/>
      <point x="763" y="70"/>
      <point x="686" y="34"/>
      <point x="615" y="34" type="curve"/>
      <point x="454" y="34"/>
      <point x="426" y="355"/>
      <point x="429" y="539" type="curve"/>
      <point x="437" y="1024"/>
      <point x="563" y="1447"/>
      <point x="766" y="1447" type="curve"/>
      <point x="811" y="1447"/>
      <point x="865" y="1444"/>
      <point x="893" y="1413" type="curve"/>
      <point x="907" y="999" type="line"/>
      <point x="1126" y="999" type="line"/>
      <point x="1195" y="1451" type="line"/>
      <point x="1077" y="1450"/>
      <point x="1010" y="1506"/>
      <point x="774" y="1506" type="curve"/>
      <point x="294" y="1506"/>
      <point x="74" y="1040"/>
      <point x="67" y="595" type="curve"/>
      <point x="62" y="288"/>
      <point x="160" y="-24"/>
    </contour>
  </outline>
</glyph>
<glyph name="D" format="1">
  <advance width="1277"/>
  <unicode hex="0044"/>
  <outline>
    <contour>
      <point x="-29" y="39" type="line"/>
      <point x="-34" y="0" type="line"/>
      <point x="238" y="0" type="line"/>
      <point x="307" y="0"/>
      <point x="454" y="-24"/>
      <point x="549" y="-24" type="curve"/>
      <point x="1047" y="-24"/>
      <point x="1283" y="404"/>
      <point x="1291" y="925" type="curve"/>
      <point x="1296" y="1218"/>
      <point x="1190" y="1502"/>
      <point x="803" y="1502" type="curve"/>
      <point x="698" y="1502"/>
      <point x="580" y="1486"/>
      <point x="449" y="1486" type="curve"/>
      <point x="171" y="1486" type="line"/>
      <point x="166" y="1450" type="line"/>
      <point x="269" y="1412" type="line"/>
      <point x="86" y="72" type="line"/>
    </contour>
    <contour>
      <point x="539" y="34" type="curve"/>
      <point x="434" y="34"/>
      <point x="444" y="67"/>
      <point x="343" y="78" type="curve"/>
      <point x="429" y="29" type="line"/>
      <point x="624" y="1458" type="line"/>
      <point x="590" y="1410" type="line"/>
      <point x="613" y="1424"/>
      <point x="642" y="1447"/>
      <point x="733" y="1447" type="curve"/>
      <point x="909" y="1447"/>
      <point x="945" y="1263"/>
      <point x="940" y="946" type="curve"/>
      <point x="935" y="583"/>
      <point x="859" y="34"/>
    </contour>
    <contour>
      <point x="524" y="0" type="move" name="bottom"/>
    </contour>
    <contour>
      <point x="738" y="1486" type="move" name="top"/>
    </contour>
  </outline>
</glyph>
<glyph name="E" format="1">
  <advance width="1104"/>
  <unicode hex="0045"/>
  <outline>
    <contour>
      <point x="159" y="1486" type="move" name="topleft"/>
    </contour>
    <contour>
      <point x="692" y="1486" type="move" name="top"/>
    </contour>
    <contour>
      <point x="879" y="-1" type="move" name="ogonek"/>
    </contour>
    <contour>
      <point x="527" y="0" type="move" name="bottom"/>
    </contour>
    <contour>
      <point x="-29" y="39" type="line"/>
      <point x="-35" y="0" type="line"/>
      <point x="966" y="0" type="line"/>
      <point x="1088" y="471" type="line"/>
      <point x="926" y="490" type="line"/>
      <point x="735" y="78" type="line"/>
      <point x="431" y="52" type="line"/>
      <point x="523" y="726" type="line"/>
      <point x="889" y="712" type="line"/>
      <point x="910" y="822" type="line"/>
      <point x="532" y="791" type="line"/>
      <point x="620" y="1435" type="line"/>
      <point x="878" y="1409" type="line"/>
      <point x="956" y="1102" type="line"/>
      <point x="1088" y="1102" type="line"/>
      <point x="1114" y="1486" type="line"/>
      <point x="170" y="1486" type="line"/>
      <point x="165" y="1450" type="line"/>
      <point x="268" y="1412" type="line"/>
      <point x="85" y="72" type="line"/>
    </contour>
  </outline>
</glyph>
<glyph name="F" format="1">
  <advance width="1041"/>
  <unicode hex="0046"/>
  <outline>
    <contour>
      <point x="571" y="-164" type="move" name="btm"/>
    </contour>
    <contour>
      <point x="661" y="1486" type="move" name="top"/>
    </contour>
    <contour>
      <point x="-30" y="38" type="line"/>
      <point x="-35" y="0" type="line"/>
      <point x="691" y="0" type="line"/>
      <point x="696" y="39" type="line"/>
      <point x="437" y="95" type="line"/>
      <point x="523" y="726" type="line"/>
      <point x="881" y="712" type="line"/>
      <point x="902" y="822" type="line"/>
      <point x="532" y="791" type="line"/>
      <point x="620" y="1435" type="line"/>
      <point x="884" y="1409" type="line"/>
      <point x="962" y="1102" type="line"/>
      <point x="1094" y="1102" type="line"/>
      <point x="1121" y="1486" type="line"/>
      <point x="170" y="1486" type="line"/>
      <point x="165" y="1450" type="line"/>
      <point x="268" y="1412" type="line"/>
      <point x="85" y="72" type="line"/>
    </contour>
  </outline>
</glyph>
<glyph name="G" format="1">
  <advance width="1218"/>
  <unicode hex="0047"/>
  <outline>
    <contour>
      <point x="821" y="1486" type="move" name="top"/>
    </contour>
    <contour>
      <point x="586" y="0" type="move" name="bottom"/>
    </contour>
    <contour>
      <point x="592" y="-24" type="curve"/>
      <point x="758" y="-24"/>
      <point x="869" y="20"/>
      <point x="969" y="48" type="curve"/>
      <point x="1014" y="60"/>
      <point x="1058" y="71"/>
      <point x="1102" y="70" type="curve"/>
      <point x="1191" y="726" type="line"/>
      <point x="725" y="726" type="line"/>
      <point x="720" y="693" type="line"/>
      <point x="855" y="648" type="line"/>
      <point x="780" y="74" type="line"/>
      <point x="737" y="49"/>
      <point x="687" y="34"/>
      <point x="628" y="34" type="curve"/>
      <point x="420" y="34"/>
      <point x="431" y="355"/>
      <point x="434" y="539" type="curve"/>
      <point x="442" y="1046"/>
      <point x="551" y="1447"/>
      <point x="802" y="1447" type="curve"/>
      <point x="878" y="1447"/>
      <point x="939" y="1414"/>
      <point x="951" y="1392" type="curve"/>
      <point x="978" y="1085" type="line"/>
      <point x="1188" y="1085" type="line"/>
      <point x="1243" y="1451" type="line"/>
      <point x="1210" y="1451"/>
      <point x="1182" y="1455"/>
      <point x="1154" y="1461" type="curve"/>
      <point x="1080" y="1477"/>
      <point x="1006" y="1506"/>
      <point x="810" y="1506" type="curve"/>
      <point x="278" y="1506"/>
      <point x="78" y="1062"/>
      <point x="70" y="595" type="curve"/>
      <point x="65" y="288"/>
      <point x="163" y="-24"/>
    </contour>
  </outline>
</glyph>
<glyph name="H" format="1">
  <advance width="1352"/>
  <unicode hex="0048"/>
  <outline>
    <contour>
      <point x="-30" y="38" type="line"/>
      <point x="-35" y="0" type="line"/>
      <point x="542" y="0" type="line"/>
      <point x="549" y="38" type="line"/>
      <point x="434" y="72" type="line"/>
      <point x="617" y="1412" type="line"/>
      <point x="752" y="1450" type="line"/>
      <point x="756" y="1486" type="line"/>
      <point x="170" y="1486" type="line"/>
      <point x="165" y="1450" type="line"/>
      <point x="268" y="1412" type="line"/>
      <point x="85" y="72" type="line"/>
    </contour>
    <contour>
      <point x="690" y="39" type="line"/>
      <point x="685" y="0" type="line"/>
      <point x="1261" y="0" type="line"/>
      <point x="1267" y="39" type="line"/>
      <point x="1165" y="72" type="line"/>
      <point x="1348" y="1412" type="line"/>
      <point x="1464" y="1450" type="line"/>
      <point x="1466" y="1486" type="line"/>
      <point x="891" y="1486" type="line"/>
      <point x="886" y="1450" type="line"/>
      <point x="999" y="1412" type="line"/>
      <point x="816" y="72" type="line"/>
    </contour>
    <contour>
      <point x="448" y="797" type="line"/>
      <point x="447" y="733" type="line"/>
      <point x="939" y="733" type="line"/>
      <point x="940" y="797" type="line"/>
    </contour>
    <contour>
      <point x="626" y="0" type="move" name="bottom"/>
    </contour>
    <contour>
      <point x="826" y="1486" type="move" name="top"/>
    </contour>
  </outline>
</glyph>
<glyph name="I" format="1">
  <advance width="677"/>
  <unicode hex="0049"/>
  <outline>
    <contour>
      <point x="467" y="-164" type="move" name="btm"/>
    </contour>
    <contour>
      <point x="210" y="1486" type="move" name="topleft"/>
    </contour>
    <contour>
      <point x="488" y="1486" type="move" name="top"/>
    </contour>
    <contour>
      <point x="464" y="0" type="move" name="ogonek"/>
    </contour>
    <contour>
      <point x="281" y="0" type="move" name="bottom"/>
    </contour>
    <contour>
      <point x="-11" y="39" type="line"/>
      <point x="-16" y="0" type="line"/>
      <point x="561" y="0" type="line"/>
      <point x="566" y="39" type="line"/>
      <point x="453" y="72" type="line"/>
      <point x="636" y="1412" type="line"/>
      <point x="771" y="1450" type="line"/>
      <point x="775" y="1486" type="line"/>
      <point x="189" y="1486" type="line"/>
      <point x="184" y="1450" type="line"/>
      <point x="287" y="1412" type="line"/>
      <point x="105" y="72" type="line"/>
    </contour>
  </outline>
</glyph>
<glyph name="J" format="1">
  <advance width="624"/>
  <unicode hex="004A"/>
  <outline>
    <contour>
      <point x="253" y="-164" type="move" name="btm"/>
    </contour>
    <contour>
      <point x="483" y="1486" type="move" name="top"/>
    </contour>
    <contour>
      <point x="-134" y="-263" type="curve"/>
      <point x="-103" y="-312" type="line"/>
      <point x="244" y="-248"/>
      <point x="393" y="-70"/>
      <point x="447" y="146" type="curve"/>
      <point x="513" y="410"/>
      <point x="542" y="783"/>
      <point x="621" y="1413" type="curve"/>
      <point x="737" y="1450" type="line"/>
      <point x="741" y="1486" type="line"/>
      <point x="164" y="1486" type="line"/>
      <point x="159" y="1450" type="line"/>
      <point x="279" y="1412" type="line"/>
      <point x="239" y="989"/>
      <point x="182" y="528"/>
      <point x="123" y="151" type="curve"/>
      <point x="95" y="-28"/>
      <point x="30" y="-197"/>
    </contour>
  </outline>
</glyph>
<glyph name="K" format="1">
  <advance width="1233"/>
  <unicode hex="004B"/>
  <outline>
    <contour>
      <point x="853" y="1486" type="move" name="top"/>
    </contour>
    <contour>
      <point x="723" y="0" type="move" name="bottom"/>
    </contour>
    <contour>
      <point x="-30" y="38" type="line"/>
      <point x="-35" y="0" type="line"/>
      <point x="537" y="0" type="line"/>
      <point x="544" y="38" type="line"/>
      <point x="429" y="72" type="line"/>
      <point x="612" y="1412" type="line"/>
      <point x="748" y="1450" type="line"/>
      <point x="752" y="1486" type="line"/>
      <point x="170" y="1486" type="line"/>
      <point x="165" y="1450" type="line"/>
      <point x="268" y="1412" type="line"/>
      <point x="85" y="72" type="line"/>
    </contour>
    <contour>
      <point x="440" y="625" type="line"/>
      <point x="468" y="561" type="line"/>
      <point x="1243" y="1408" type="line"/>
      <point x="1371" y="1452" type="line"/>
      <point x="1375" y="1486" type="line"/>
      <point x="996" y="1486" type="line"/>
      <point x="991" y="1452" type="line"/>
      <point x="1121" y="1409" type="line"/>
    </contour>
    <contour>
      <point x="879" y="0" type="curve"/>
      <point x="1299" y="0" type="line"/>
      <point x="1305" y="40" type="line"/>
      <point x="1236" y="66" type="line"/>
      <point x="1164" y="111"/>
      <point x="1073" y="373"/>
      <point x="994" y="584" type="curve"/>
      <point x="914" y="797"/>
      <point x="884" y="888"/>
      <point x="840" y="998" type="curve"/>
      <point x="586" y="745" type="line"/>
      <point x="621" y="656"/>
      <point x="708" y="330"/>
      <point x="766" y="187" type="curve"/>
      <point x="817" y="60"/>
      <point x="820" y="0"/>
    </contour>
  </outline>
</glyph>
<glyph name="L" format="1">
  <advance width="1075"/>
  <unicode hex="004C"/>
  <outline>
    <contour>
      <point x="-30" y="38" type="line"/>
      <point x="-35" y="0" type="line"/>
      <point x="953" y="0" type="line"/>
      <point x="1070" y="532" type="line"/>
      <point x="909" y="552" type="line"/>
      <point x="729" y="83" type="line"/>
      <point x="430" y="52" type="line"/>
      <point x="617" y="1413" type="line"/>
      <point x="751" y="1450" type="line"/>
      <point x="755" y="1486" type="line"/>
      <point x="170" y="1486" type="line"/>
      <point x="165" y="1450" type="line"/>
      <point x="268" y="1412" type="line"/>
      <point x="85" y="72" type="line"/>
    </contour>
    <contour>
      <point x="497" y="0" type="move" name="bottom"/>
    </contour>
    <contour>
      <point x="781" y="1110" type="move" name="car"/>
    </contour>
    <contour>
      <point x="492" y="1486" type="move" name="top"/>
    </contour>
  </outline>
</glyph>
<glyph name="M" format="1">
  <advance width="1650"/>
  <unicode hex="004D"/>
  <outline>
    <contour>
      <point x="952" y="1486" type="move" name="top"/>
    </contour>
    <contour>
      <point x="701" y="0" type="move" name="bottom"/>
    </contour>
    <contour>
      <point x="1162" y="1486" type="line"/>
      <point x="866" y="530" type="line"/>
      <point x="783" y="237" type="line"/>
      <point x="773" y="529" type="line"/>
      <point x="721" y="1486" type="line"/>
      <point x="223" y="1486" type="line"/>
      <point x="217" y="1450" type="line"/>
      <point x="367" y="1412" type="line"/>
      <point x="63" y="106" type="line"/>
      <point x="-77" y="39" type="line"/>
      <point x="-81" y="0" type="line"/>
      <point x="298" y="0" type="line"/>
      <point x="302" y="39" type="line"/>
      <point x="149" y="106" type="line"/>
      <point x="349" y="1046" type="line"/>
      <point x="415" y="1362" type="line"/>
      <point x="422" y="1050" type="line"/>
      <point x="483" y="0" type="line"/>
      <point x="772" y="0" type="line"/>
      <point x="1096" y="1047" type="line"/>
      <point x="1186" y="1356" type="line"/>
      <point x="1170" y="1049" type="line"/>
      <point x="1108" y="72" type="line"/>
      <point x="968" y="38" type="line"/>
      <point x="963" y="0" type="line"/>
      <point x="1599" y="0" type="line"/>
      <point x="1604" y="36" type="line"/>
      <point x="1455" y="72" type="line"/>
      <point x="1525" y="1412" type="line"/>
      <point x="1683" y="1451" type="line"/>
      <point x="1688" y="1486" type="line"/>
    </contour>
  </outline>
</glyph>
<glyph name="N" format="1">
  <advance width="1227"/>
  <unicode hex="004E"/>
  <outline>
    <contour>
      <point x="-30" y="36" type="line"/>
      <point x="-32" y="0" type="line"/>
      <point x="370" y="0" type="line"/>
      <point x="375" y="36" type="line"/>
      <point x="183" y="97" type="line"/>
      <point x="342" y="1443" type="line"/>
      <point x="289" y="1435" type="line"/>
      <point x="397" y="1054" type="line"/>
      <point x="800" y="0" type="line"/>
      <point x="1017" y="0" type="line"/>
      <point x="1207" y="1389" type="line"/>
      <point x="1345" y="1450" type="line"/>
      <point x="1347" y="1486" type="line"/>
      <point x="945" y="1486" type="line"/>
      <point x="940" y="1450" type="line"/>
      <point x="1125" y="1389" type="line"/>
      <point x="1003" y="254" type="line"/>
      <point x="1045" y="319" type="line"/>
      <point x="946" y="609" type="line"/>
      <point x="609" y="1486" type="line"/>
      <point x="168" y="1486" type="line"/>
      <point x="162" y="1447" type="line"/>
      <point x="289" y="1410" type="line"/>
      <point x="100" y="97" type="line"/>
    </contour>
    <contour>
      <point x="620" y="0" type="move" name="bottom"/>
    </contour>
    <contour>
      <point x="798" y="1486" type="move" name="top"/>
    </contour>
  </outline>
</glyph>
<glyph name="O" format="1">
  <advance width="1255"/>
  <unicode hex="004F"/>
  <outline>
    <contour>
      <point x="179" y="1486" type="move" name="topleft"/>
    </contour>
    <contour>
      <point x="676" y="744" type="move" name="center"/>
    </contour>
    <contour>
      <point x="574" y="0" type="move" name="bottom"/>
    </contour>
    <contour>
      <point x="771" y="1486" type="move" name="top"/>
    </contour>
    <contour>
      <point x="1054" y="1491" type="move" name="topright"/>
    </contour>
    <contour>
      <point x="746" y="8" type="move" name="ogonek"/>
    </contour>
    <contour>
      <point x="559" y="-24" type="curve"/>
      <point x="1039" y="-24"/>
      <point x="1261" y="433"/>
      <point x="1268" y="885" type="curve"/>
      <point x="1272" y="1181"/>
      <point x="1185" y="1505"/>
      <point x="781" y="1505" type="curve"/>
      <point x="296" y="1505"/>
      <point x="75" y="1048"/>
      <point x="68" y="600" type="curve"/>
      <point x="64" y="303"/>
      <point x="152" y="-24"/>
    </contour>
    <contour>
      <point x="572" y="34" type="curve"/>
      <point x="416" y="34"/>
      <point x="413" y="366"/>
      <point x="416" y="537" type="curve"/>
      <point x="423" y="1001"/>
      <point x="552" y="1445"/>
      <point x="762" y="1447" type="curve"/>
      <point x="930" y="1448"/>
      <point x="922" y="1113"/>
      <point x="920" y="950" type="curve"/>
      <point x="913" y="474"/>
      <point x="782" y="34"/>
    </contour>
  </outline>
</glyph>
<glyph name="P" format="1">
  <advance width="1133"/>
  <unicode hex="0050"/>
  <outline>
    <contour>
      <point x="271" y="-166" type="move" name="btm"/>
    </contour>
    <contour>
      <point x="691" y="1486" type="move" name="top"/>
    </contour>
    <contour>
      <point x="-30" y="38" type="line"/>
      <point x="-35" y="0" type="line"/>
      <point x="684" y="0" type="line"/>
      <point x="688" y="39" type="line"/>
      <point x="428" y="95" type="line"/>
      <point x="613" y="1450" type="line"/>
      <point x="603" y="1431" type="line"/>
      <point x="628" y="1435"/>
      <point x="644" y="1441"/>
      <point x="691" y="1441" type="curve"/>
      <point x="806" y="1441"/>
      <point x="841" y="1311"/>
      <point x="839" y="1130" type="curve"/>
      <point x="836" y="939"/>
      <point x="763" y="572"/>
      <point x="561" y="572" type="curve"/>
      <point x="541" y="572"/>
      <point x="513" y="574"/>
      <point x="468" y="588" type="curve"/>
      <point x="461" y="518" type="line"/>
      <point x="500" y="508"/>
      <point x="563" y="503"/>
      <point x="612" y="503" type="curve"/>
      <point x="1110" y="503"/>
      <point x="1188" y="898"/>
      <point x="1191" y="1087" type="curve"/>
      <point x="1195" y="1336"/>
      <point x="1060" y="1499"/>
      <point x="764" y="1497" type="curve"/>
      <point x="623" y="1495"/>
      <point x="518" y="1486"/>
      <point x="438" y="1486" type="curve"/>
      <point x="170" y="1486" type="line"/>
      <point x="165" y="1450" type="line"/>
      <point x="268" y="1412" type="line"/>
      <point x="85" y="72" type="line"/>
    </contour>
  </outline>
</glyph>
<glyph name="Q" format="1">
  <advance width="1255"/>
  <unicode hex="0051"/>
  <outline>
    <contour>
      <point x="861" y="-429" type="curve"/>
      <point x="982" y="-429"/>
      <point x="1094" y="-391"/>
      <point x="1151" y="-350" type="curve"/>
      <point x="1154" y="-135" type="line"/>
      <point x="1078" y="-162"/>
      <point x="1009" y="-175"/>
      <point x="939" y="-175" type="curve"/>
      <point x="796" y="-175"/>
      <point x="666" y="-161"/>
      <point x="671" y="8" type="curve"/>
      <point x="616" y="-9" type="line"/>
      <point x="477" y="-242"/>
      <point x="606" y="-429"/>
    </contour>
    <contour>
      <point x="559" y="-24" type="curve"/>
      <point x="1039" y="-24"/>
      <point x="1261" y="433"/>
      <point x="1268" y="885" type="curve"/>
      <point x="1272" y="1181"/>
      <point x="1185" y="1505"/>
      <point x="781" y="1505" type="curve"/>
      <point x="296" y="1505"/>
      <point x="75" y="1048"/>
      <point x="68" y="600" type="curve"/>
      <point x="64" y="303"/>
      <point x="152" y="-24"/>
    </contour>
    <contour>
      <point x="572" y="34" type="curve"/>
      <point x="416" y="34"/>
      <point x="413" y="366"/>
      <point x="416" y="537" type="curve"/>
      <point x="423" y="1001"/>
      <point x="552" y="1445"/>
      <point x="762" y="1447" type="curve"/>
      <point x="930" y="1448"/>
      <point x="922" y="1113"/>
      <point x="920" y="950" type="curve"/>
      <point x="913" y="474"/>
      <point x="782" y="34"/>
    </contour>
  </outline>
</glyph>
<glyph name="R" format="1">
  <advance width="1228"/>
  <unicode hex="0052"/>
  <outline>
    <contour>
      <point x="679" y="1486" type="move" name="top"/>
    </contour>
    <contour>
      <point x="650" y="0" type="move" name="bottom"/>
    </contour>
    <contour>
      <point x="-30" y="38" type="line"/>
      <point x="-35" y="0" type="line"/>
      <point x="529" y="0" type="line"/>
      <point x="536" y="38" type="line"/>
      <point x="424" y="72" type="line"/>
      <point x="613" y="1464" type="line"/>
      <point x="596" y="1420" type="line"/>
      <point x="616" y="1436"/>
      <point x="644" y="1441"/>
      <point x="681" y="1441" type="curve"/>
      <point x="808" y="1441"/>
      <point x="853" y="1310"/>
      <point x="850" y="1132" type="curve"/>
      <point x="846" y="939"/>
      <point x="790" y="665"/>
      <point x="587" y="688" type="curve"/>
      <point x="548" y="692"/>
      <point x="522" y="689"/>
      <point x="499" y="696" type="curve"/>
      <point x="490" y="625" type="line"/>
      <point x="529" y="625"/>
      <point x="559" y="625"/>
      <point x="631" y="625" type="curve"/>
      <point x="666" y="577"/>
      <point x="701" y="424"/>
      <point x="729" y="285" type="curve"/>
      <point x="759" y="146"/>
      <point x="801" y="0"/>
      <point x="843" y="0" type="curve"/>
      <point x="1212" y="0" type="line"/>
      <point x="1217" y="40" type="line"/>
      <point x="1147" y="57"/>
      <point x="1117" y="197"/>
      <point x="1078" y="329" type="curve"/>
      <point x="1023" y="517"/>
      <point x="960" y="685"/>
      <point x="760" y="704" type="curve"/>
      <point x="718" y="638" type="line"/>
      <point x="1045" y="676"/>
      <point x="1180" y="897"/>
      <point x="1184" y="1131" type="curve"/>
      <point x="1187" y="1345"/>
      <point x="1083" y="1499"/>
      <point x="736" y="1499" type="curve"/>
      <point x="624" y="1499"/>
      <point x="545" y="1486"/>
      <point x="429" y="1486" type="curve"/>
      <point x="170" y="1486" type="line"/>
      <point x="165" y="1450" type="line"/>
      <point x="268" y="1412" type="line"/>
      <point x="85" y="72" type="line"/>
    </contour>
  </outline>
</glyph>
<glyph name="S" format="1">
  <advance width="1003"/>
  <unicode hex="0053"/>
  <outline>
    <contour>
      <point x="651" y="1486" type="move" name="top"/>
    </contour>
    <contour>
      <point x="428" y="0" type="move" name="bottom"/>
    </contour>
    <contour>
      <point x="432" y="-24" type="curve"/>
      <point x="784" y="-24"/>
      <point x="959" y="173"/>
      <point x="963" y="425" type="curve"/>
      <point x="966" y="614"/>
      <point x="851" y="743"/>
      <point x="712" y="848" type="curve"/>
      <point x="540" y="978"/>
      <point x="462" y="1053"/>
      <point x="463" y="1175" type="curve"/>
      <point x="466" y="1346"/>
      <point x="542" y="1447"/>
      <point x="664" y="1447" type="curve"/>
      <point x="724" y="1447"/>
      <point x="766" y="1424"/>
      <point x="784" y="1404" type="curve"/>
      <point x="800" y="1136" type="line"/>
      <point x="988" y="1136" type="line"/>
      <point x="1039" y="1433" type="line"/>
      <point x="984" y="1469"/>
      <point x="867" y="1504"/>
      <point x="683" y="1504" type="curve"/>
      <point x="420" y="1504"/>
      <point x="171" y="1362"/>
      <point x="166" y="1030" type="curve"/>
      <point x="163" y="834"/>
      <point x="279" y="709"/>
      <point x="426" y="598" type="curve"/>
      <point x="588" y="474"/>
      <point x="634" y="406"/>
      <point x="632" y="271" type="curve"/>
      <point x="631" y="141"/>
      <point x="578" y="34"/>
      <point x="441" y="34" type="curve"/>
      <point x="364" y="34"/>
      <point x="300" y="89"/>
      <point x="277" y="127" type="curve"/>
      <point x="269" y="386" type="line"/>
      <point x="84" y="386" type="line"/>
      <point x="26" y="75" type="line"/>
      <point x="67" y="39"/>
      <point x="269" y="-24"/>
    </contour>
  </outline>
</glyph>
<glyph name="T" format="1">
  <advance width="1230"/>
  <unicode hex="0054"/>
  <outline>
    <contour>
      <point x="1320" y="1486" type="line"/>
      <point x="194" y="1486" type="line"/>
      <point x="94" y="939" type="line"/>
      <point x="253" y="939" type="line"/>
      <point x="438" y="1427" type="line"/>
      <point x="582" y="1435" type="line"/>
      <point x="399" y="85" type="line"/>
      <point x="193" y="39" type="line"/>
      <point x="188" y="0" type="line"/>
      <point x="957" y="0" type="line"/>
      <point x="961" y="39" type="line"/>
      <point x="748" y="85" type="line"/>
      <point x="931" y="1435" type="line"/>
      <point x="1065" y="1427" type="line"/>
      <point x="1122" y="939" type="line"/>
      <point x="1261" y="939" type="line"/>
    </contour>
    <contour>
      <point x="554" y="0" type="move" name="bottom"/>
    </contour>
    <contour>
      <point x="744" y="1486" type="move" name="top"/>
    </contour>
  </outline>
</glyph>
<glyph name="U" format="1">
  <advance width="1197"/>
  <unicode hex="0055"/>
  <outline>
    <contour>
      <point x="1101" y="611" type="curve"/>
      <point x="1219" y="1412" type="line"/>
      <point x="1318" y="1450" type="line"/>
      <point x="1320" y="1486" type="line"/>
      <point x="1005" y="1486" type="line"/>
      <point x="1000" y="1450" type="line"/>
      <point x="1138" y="1412" type="line"/>
      <point x="1035" y="612" type="line" smooth="yes"/>
      <point x="994" y="293"/>
      <point x="911" y="107"/>
      <point x="682" y="107" type="curve"/>
      <point x="510" y="107"/>
      <point x="468" y="243"/>
      <point x="470" y="387" type="curve"/>
      <point x="471" y="455"/>
      <point x="478" y="531"/>
      <point x="490" y="611" type="curve"/>
      <point x="599" y="1412" type="line"/>
      <point x="739" y="1450" type="line"/>
      <point x="743" y="1486" type="line"/>
      <point x="161" y="1486" type="line"/>
      <point x="156" y="1450" type="line"/>
      <point x="250" y="1412" type="line"/>
      <point x="141" y="613" type="line" smooth="yes"/>
      <point x="133" y="553"/>
      <point x="128" y="500"/>
      <point x="128" y="449" type="curve"/>
      <point x="123" y="136"/>
      <point x="256" y="-20"/>
      <point x="583" y="-20" type="curve"/>
      <point x="958" y="-20"/>
      <point x="1045" y="232"/>
    </contour>
    <contour>
      <point x="603" y="0" type="move" name="bottom"/>
    </contour>
    <contour>
      <point x="789" y="20" type="move" name="ogonek"/>
    </contour>
    <contour>
      <point x="814" y="1486" type="move" name="top"/>
    </contour>
    <contour>
      <point x="1135" y="1483" type="move" name="topright"/>
    </contour>
  </outline>
</glyph>
<glyph name="V" format="1">
  <advance width="1135"/>
  <unicode hex="0056"/>
  <outline>
    <contour>
      <point x="884" y="1660" type="move" name="top"/>
    </contour>
    <contour>
      <point x="188" y="1413" type="line"/>
      <point x="368" y="2" type="line"/>
      <point x="654" y="1" type="line"/>
      <point x="1183" y="1416" type="line"/>
      <point x="1306" y="1452" type="line"/>
      <point x="1311" y="1486" type="line"/>
      <point x="951" y="1486" type="line"/>
      <point x="946" y="1452" type="line"/>
      <point x="1081" y="1416" type="line"/>
      <point x="708" y="327" type="line"/>
      <point x="630" y="67" type="line"/>
      <point x="666" y="122" type="line"/>
      <point x="635" y="494" type="line"/>
      <point x="543" y="1413" type="line"/>
      <point x="676" y="1448" type="line"/>
      <point x="680" y="1486" type="line"/>
      <point x="90" y="1486" type="line"/>
      <point x="85" y="1448" type="line"/>
    </contour>
  </outline>
</glyph>
<glyph name="W" format="1">
  <advance width="1840"/>
  <unicode hex="0057"/>
  <outline>
    <contour>
      <point x="903" y="1413" type="line"/>
      <point x="1117" y="-3" type="line"/>
      <point x="1403" y="-1" type="line"/>
      <point x="1887" y="1416" type="line"/>
      <point x="2010" y="1452" type="line"/>
      <point x="2015" y="1486" type="line"/>
      <point x="1656" y="1486" type="line"/>
      <point x="1651" y="1452" type="line"/>
      <point x="1785" y="1416" type="line"/>
      <point x="1449" y="328" type="line"/>
      <point x="1375" y="78" type="line"/>
      <point x="1415" y="133" type="line"/>
      <point x="1385" y="485" type="line"/>
      <point x="1258" y="1413" type="line"/>
      <point x="1393" y="1448" type="line"/>
      <point x="1398" y="1486" type="line"/>
      <point x="807" y="1486" type="line"/>
      <point x="803" y="1448" type="line"/>
    </contour>
    <contour>
      <point x="186" y="1413" type="line"/>
      <point x="398" y="-3" type="line"/>
      <point x="684" y="-1" type="line"/>
      <point x="1175" y="1431" type="line"/>
      <point x="1073" y="1431" type="line"/>
      <point x="731" y="330" type="line"/>
      <point x="656" y="78" type="line"/>
      <point x="695" y="133" type="line"/>
      <point x="666" y="485" type="line"/>
      <point x="542" y="1413" type="line"/>
      <point x="674" y="1448" type="line"/>
      <point x="680" y="1486" type="line"/>
      <point x="88" y="1486" type="line"/>
      <point x="84" y="1448" type="line"/>
    </contour>
    <contour>
      <point x="808" y="0" type="move" name="bottom"/>
    </contour>
    <contour>
      <point x="1061" y="1486" type="move" name="top"/>
    </contour>
  </outline>
</glyph>
<glyph name="X" format="1">
  <advance width="1294"/>
  <unicode hex="0058"/>
  <outline>
    <contour>
      <point x="883" y="1660" type="move" name="top"/>
    </contour>
    <contour>
      <point x="586" y="0" type="move" name="bottom"/>
    </contour>
    <contour>
      <point x="-48" y="38" type="line"/>
      <point x="-54" y="0" type="line"/>
      <point x="382" y="0" type="line"/>
      <point x="388" y="38" type="line"/>
      <point x="221" y="86" type="line"/>
      <point x="610" y="648" type="line"/>
      <point x="803" y="802" type="line"/>
      <point x="1265" y="1399" type="line"/>
      <point x="1410" y="1450" type="line"/>
      <point x="1415" y="1486" type="line"/>
      <point x="997" y="1486" type="line"/>
      <point x="989" y="1450" type="line"/>
      <point x="1164" y="1399" type="line"/>
      <point x="783" y="854" type="line"/>
      <point x="588" y="697" type="line"/>
      <point x="121" y="86" type="line"/>
    </contour>
    <contour>
      <point x="591" y="38" type="line"/>
      <point x="585" y="0" type="line"/>
      <point x="1225" y="0" type="line"/>
      <point x="1230" y="38" type="line"/>
      <point x="1106" y="86" type="line"/>
      <point x="830" y="869" type="line"/>
      <point x="824" y="884" type="line"/>
      <point x="668" y="1400" type="line"/>
      <point x="816" y="1453" type="line"/>
      <point x="824" y="1487" type="line"/>
      <point x="180" y="1487" type="line"/>
      <point x="174" y="1451" type="line"/>
      <point x="293" y="1399" type="line"/>
      <point x="556" y="646" type="line"/>
      <point x="562" y="628" type="line"/>
      <point x="736" y="86" type="line"/>
    </contour>
  </outline>
</glyph>
<glyph name="Y" format="1">
  <advance width="1060"/>
  <unicode hex="0059"/>
  <outline>
    <contour>
      <point x="430" y="-166" type="move" name="btm"/>
    </contour>
    <contour>
      <point x="116" y="1486" type="move" name="topleft"/>
    </contour>
    <contour>
      <point x="716" y="1486" type="move" name="top"/>
    </contour>
    <contour>
      <point x="440" y="0" type="move" name="bottom"/>
    </contour>
    <contour>
      <point x="118" y="39" type="line"/>
      <point x="113" y="0" type="line"/>
      <point x="882" y="0" type="line"/>
      <point x="886" y="39" type="line"/>
      <point x="668" y="85" type="line"/>
      <point x="759" y="753" type="line"/>
      <point x="680" y="565" type="line"/>
      <point x="1129" y="1416" type="line"/>
      <point x="1252" y="1452" type="line"/>
      <point x="1257" y="1486" type="line"/>
      <point x="912" y="1486" type="line"/>
      <point x="907" y="1452" type="line"/>
      <point x="1025" y="1416" type="line"/>
      <point x="754" y="849" type="line"/>
      <point x="640" y="610" type="line"/>
      <point x="732" y="707" type="line"/>
      <point x="684" y="899" type="line"/>
      <point x="532" y="1412" type="line"/>
      <point x="658" y="1452" type="line"/>
      <point x="663" y="1486" type="line"/>
      <point x="83" y="1486" type="line"/>
      <point x="78" y="1452" type="line"/>
      <point x="174" y="1416" type="line"/>
      <point x="452" y="540" type="line"/>
      <point x="425" y="816" type="line"/>
      <point x="326" y="85" type="line"/>
    </contour>
  </outline>
</glyph>
<glyph name="Z" format="1">
  <advance width="1203"/>
  <unicode hex="005A"/>
  <outline>
    <contour>
      <point x="1293" y="1486" type="line"/>
      <point x="262" y="1486" type="line"/>
      <point x="183" y="1055" type="line"/>
      <point x="353" y="1055" type="line"/>
      <point x="500" y="1407" type="line"/>
      <point x="927" y="1432" type="line"/>
      <point x="804" y="1281" type="line"/>
      <point x="-27" y="29" type="line"/>
      <point x="-17" y="0" type="line"/>
      <point x="1079" y="0" type="line"/>
      <point x="1173" y="460" type="line"/>
      <point x="1007" y="480" type="line"/>
      <point x="811" y="79" type="line"/>
      <point x="353" y="53" type="line"/>
      <point x="482" y="206" type="line"/>
      <point x="1304" y="1456" type="line"/>
    </contour>
    <contour>
      <point x="553" y="0" type="move" name="bottom"/>
    </contour>
    <contour>
      <point x="762" y="1486" type="move" name="top"/>
    </contour>
  </outline>
</glyph>
<glyph name="AE" format="1">
  <advance width="1689"/>
  <unicode hex="00C6"/>
  <outline>
    <contour>
      <point x="555" y="39" type="line"/>
      <point x="549" y="-1" type="line"/>
      <point x="1552" y="0" type="line"/>
      <point x="1672" y="471" type="line"/>
      <point x="1511" y="490" type="line"/>
      <point x="1320" y="79" type="line"/>
      <point x="1017" y="53" type="line"/>
      <point x="1107" y="728" type="line"/>
      <point x="1473" y="711" type="line"/>
      <point x="1494" y="821" type="line"/>
      <point x="1116" y="792" type="line"/>
      <point x="1204" y="1435" type="line"/>
      <point x="1464" y="1409" type="line"/>
      <point x="1540" y="1102" type="line"/>
      <point x="1673" y="1102" type="line"/>
      <point x="1699" y="1486" type="line"/>
      <point x="514" y="1486" type="line"/>
      <point x="509" y="1450" type="line"/>
      <point x="727" y="1412" type="line"/>
      <point x="-24" y="73" type="line"/>
      <point x="-163" y="39" type="line"/>
      <point x="-166" y="0" type="line"/>
      <point x="303" y="0" type="line"/>
      <point x="306" y="39" type="line"/>
      <point x="157" y="73" type="line"/>
      <point x="328" y="428" type="line"/>
      <point x="717" y="428" type="line"/>
      <point x="669" y="72" type="line"/>
    </contour>
    <contour>
      <point x="363" y="494" type="line"/>
      <point x="805" y="1412" type="line"/>
      <point x="852" y="1412" type="line"/>
      <point x="726" y="494" type="line"/>
    </contour>
    <contour>
      <point x="1021" y="1486" type="move" name="top"/>
    </contour>
  </outline>
</glyph>
<glyph name="Eth" format="1">
  <advance width="1295"/>
  <unicode hex="00D0"/>
  <outline>
    <contour>
      <point x="88" y="800" type="line"/>
      <point x="79" y="732" type="line"/>
      <point x="779" y="732" type="line"/>
      <point x="788" y="800" type="line"/>
    </contour>
    <contour>
      <point x="-11" y="39" type="line"/>
      <point x="-16" y="0" type="line"/>
      <point x="256" y="0" type="line"/>
      <point x="325" y="0"/>
      <point x="473" y="-24"/>
      <point x="568" y="-24" type="curve"/>
      <point x="1065" y="-24"/>
      <point x="1302" y="404"/>
      <point x="1309" y="925" type="curve"/>
      <point x="1314" y="1218"/>
      <point x="1208" y="1502"/>
      <point x="821" y="1502" type="curve"/>
      <point x="716" y="1502"/>
      <point x="598" y="1486"/>
      <point x="467" y="1486" type="curve"/>
      <point x="189" y="1486" type="line"/>
      <point x="184" y="1450" type="line"/>
      <point x="287" y="1412" type="line"/>
      <point x="104" y="72" type="line"/>
    </contour>
    <contour>
      <point x="557" y="34" type="curve"/>
      <point x="452" y="34"/>
      <point x="463" y="67"/>
      <point x="361" y="78" type="curve"/>
      <point x="447" y="29" type="line"/>
      <point x="642" y="1458" type="line"/>
      <point x="609" y="1410" type="line"/>
      <point x="631" y="1424"/>
      <point x="661" y="1447"/>
      <point x="752" y="1447" type="curve"/>
      <point x="927" y="1447"/>
      <point x="963" y="1263"/>
      <point x="958" y="946" type="curve"/>
      <point x="953" y="583"/>
      <point x="877" y="34"/>
    </contour>
  </outline>
</glyph>
<glyph name="Thorn" format="1">
  <advance width="1130"/>
  <unicode hex="00DE"/>
  <outline>
    <contour>
      <point x="-30" y="38" type="line"/>
      <point x="-35" y="0" type="line"/>
      <point x="581" y="0" type="line"/>
      <point x="588" y="38" type="line"/>
      <point x="434" y="72" type="line"/>
      <point x="476" y="381" type="line"/>
      <point x="515" y="373"/>
      <point x="564" y="369"/>
      <point x="602" y="369" type="curve"/>
      <point x="1061" y="369"/>
      <point x="1129" y="655"/>
      <point x="1132" y="815" type="curve"/>
      <point x="1135" y="1045"/>
      <point x="999" y="1157"/>
      <point x="714" y="1157" type="curve"/>
      <point x="667" y="1157"/>
      <point x="622" y="1153"/>
      <point x="581" y="1149" type="curve"/>
      <point x="617" y="1412" type="line"/>
      <point x="752" y="1450" type="line"/>
      <point x="756" y="1486" type="line"/>
      <point x="170" y="1486" type="line"/>
      <point x="165" y="1450" type="line"/>
      <point x="268" y="1412" type="line"/>
      <point x="85" y="72" type="line"/>
    </contour>
    <contour>
      <point x="483" y="431" type="curve"/>
      <point x="573" y="1097" type="line"/>
      <point x="592" y="1101"/>
      <point x="615" y="1106"/>
      <point x="646" y="1106" type="curve"/>
      <point x="771" y="1106"/>
      <point x="796" y="975"/>
      <point x="794" y="839" type="curve"/>
      <point x="792" y="699"/>
      <point x="727" y="423"/>
      <point x="530" y="423" type="curve"/>
      <point x="511" y="423"/>
      <point x="499" y="426"/>
    </contour>
  </outline>
</glyph>
<glyph name="Lslash" format="1">
  <advance width="1094"/>
  <unicode hex="0141"/>
  <outline>
    <contour>
      <point x="30" y="687" type="line"/>
      <point x="51" y="619" type="line"/>
      <point x="841" y="981" type="line"/>
      <point x="818" y="1052" type="line"/>
    </contour>
    <contour>
      <point x="-11" y="38" type="line"/>
      <point x="-16" y="0" type="line"/>
      <point x="973" y="0" type="line"/>
      <point x="1090" y="532" type="line"/>
      <point x="928" y="552" type="line"/>
      <point x="748" y="83" type="line"/>
      <point x="450" y="52" type="line"/>
      <point x="636" y="1413" type="line"/>
      <point x="770" y="1450" type="line"/>
      <point x="774" y="1486" type="line"/>
      <point x="189" y="1486" type="line"/>
      <point x="184" y="1450" type="line"/>
      <point x="287" y="1412" type="line"/>
      <point x="104" y="72" type="line"/>
    </contour>
  </outline>
</glyph>
<glyph name="Eng" format="1">
  <advance width="1370"/>
  <unicode hex="014A"/>
  <outline>
    <contour>
      <point x="412" y="-487" type="curve"/>
      <point x="444" y="-539" type="line"/>
      <point x="720" y="-502"/>
      <point x="985" y="-242"/>
      <point x="1031" y="99" type="curve"/>
      <point x="1207" y="1389" type="line"/>
      <point x="1345" y="1450" type="line"/>
      <point x="1348" y="1486" type="line"/>
      <point x="945" y="1486" type="line"/>
      <point x="940" y="1450" type="line"/>
      <point x="1124" y="1389" type="line"/>
      <point x="1018" y="399" type="line"/>
      <point x="949" y="602" type="line"/>
      <point x="607" y="1486" type="line"/>
      <point x="168" y="1486" type="line"/>
      <point x="162" y="1447" type="line"/>
      <point x="289" y="1410" type="line"/>
      <point x="100" y="97" type="line"/>
      <point x="-30" y="36" type="line"/>
      <point x="-32" y="0" type="line"/>
      <point x="370" y="0" type="line"/>
      <point x="375" y="36" type="line"/>
      <point x="183" y="97" type="line"/>
      <point x="326" y="1306" type="line"/>
      <point x="397" y="1054" type="line"/>
      <point x="801" y="0" type="line"/>
      <point x="773" y="-299"/>
      <point x="525" y="-464"/>
    </contour>
  </outline>
</glyph>
<glyph name="OE" format="1">
  <advance width="1918"/>
  <unicode hex="0152"/>
  <outline>
    <contour>
      <point x="559" y="-24" type="curve"/>
      <point x="714" y="-24"/>
      <point x="842" y="36"/>
      <point x="942" y="135" type="curve"/>
      <point x="924" y="0" type="line"/>
      <point x="1790" y="0" type="line"/>
      <point x="1901" y="471" type="line"/>
      <point x="1739" y="490" type="line"/>
      <point x="1558" y="78" type="line"/>
      <point x="1271" y="52" type="line"/>
      <point x="1362" y="726" type="line"/>
      <point x="1703" y="712" type="line"/>
      <point x="1724" y="822" type="line"/>
      <point x="1371" y="791" type="line"/>
      <point x="1459" y="1435" type="line"/>
      <point x="1701" y="1409" type="line"/>
      <point x="1779" y="1102" type="line"/>
      <point x="1911" y="1102" type="line"/>
      <point x="1937" y="1486" type="line"/>
      <point x="1127" y="1486" type="line"/>
      <point x="1107" y="1345" type="line"/>
      <point x="1041" y="1440"/>
      <point x="937" y="1505"/>
      <point x="781" y="1505" type="curve"/>
      <point x="296" y="1505"/>
      <point x="75" y="1048"/>
      <point x="68" y="600" type="curve"/>
      <point x="63" y="303"/>
      <point x="152" y="-24"/>
    </contour>
    <contour>
      <point x="572" y="34" type="curve"/>
      <point x="415" y="34"/>
      <point x="413" y="366"/>
      <point x="416" y="537" type="curve"/>
      <point x="423" y="1001"/>
      <point x="552" y="1445"/>
      <point x="762" y="1447" type="curve"/>
      <point x="930" y="1448"/>
      <point x="923" y="1113"/>
      <point x="920" y="950" type="curve"/>
      <point x="912" y="474"/>
      <point x="782" y="34"/>
    </contour>
  </outline>
</glyph>
<glyph name="Ohorn" format="1">
  <advance width="1301"/>
  <unicode hex="01A0"/>
  <outline>
    <contour>
      <point x="1004" y="1384" type="curve"/>
      <point x="1043" y="1308" type="line"/>
      <point x="1222" y="1307"/>
      <point x="1439" y="1387"/>
      <point x="1443" y="1631" type="curve"/>
      <point x="1444" y="1688"/>
      <point x="1437" y="1706"/>
      <point x="1429" y="1727" type="curve"/>
      <point x="1224" y="1727" type="line"/>
      <point x="1226" y="1714"/>
      <point x="1227" y="1703"/>
      <point x="1226" y="1670" type="curve"/>
      <point x="1225" y="1551"/>
      <point x="1203" y="1384"/>
    </contour>
    <contour>
      <point x="559" y="-24" type="curve"/>
      <point x="1039" y="-24"/>
      <point x="1261" y="433"/>
      <point x="1268" y="885" type="curve"/>
      <point x="1272" y="1181"/>
      <point x="1185" y="1505"/>
      <point x="781" y="1505" type="curve"/>
      <point x="296" y="1505"/>
      <point x="75" y="1048"/>
      <point x="68" y="600" type="curve"/>
      <point x="64" y="303"/>
      <point x="152" y="-24"/>
    </contour>
    <contour>
      <point x="572" y="34" type="curve"/>
      <point x="416" y="34"/>
      <point x="413" y="366"/>
      <point x="416" y="537" type="curve"/>
      <point x="423" y="1001"/>
      <point x="552" y="1445"/>
      <point x="762" y="1447" type="curve"/>
      <point x="930" y="1448"/>
      <point x="922" y="1113"/>
      <point x="920" y="950" type="curve"/>
      <point x="913" y="474"/>
      <point x="782" y="34"/>
    </contour>
    <contour>
      <point x="567" y="0" type="move" name="bottom"/>
    </contour>
    <contour>
      <point x="752" y="1486" type="move" name="top"/>
    </contour>
  </outline>
</glyph>
<glyph name="Uhorn" format="1">
  <advance width="1338"/>
  <unicode hex="01AF"/>
  <outline>
    <contour>
      <point x="849" y="1486" type="move" name="top"/>
    </contour>
    <contour>
      <point x="705" y="0" type="move" name="bottom"/>
    </contour>
    <contour>
      <point x="1101" y="611" type="curve"/>
      <point x="1219" y="1412" type="line"/>
      <point x="1318" y="1450" type="line"/>
      <point x="1320" y="1486" type="line"/>
      <point x="1005" y="1486" type="line"/>
      <point x="1000" y="1450" type="line"/>
      <point x="1138" y="1412" type="line"/>
      <point x="1035" y="612" type="line" smooth="yes"/>
      <point x="994" y="293"/>
      <point x="911" y="107"/>
      <point x="682" y="107" type="curve"/>
      <point x="510" y="107"/>
      <point x="468" y="243"/>
      <point x="470" y="387" type="curve"/>
      <point x="471" y="455"/>
      <point x="478" y="531"/>
      <point x="490" y="611" type="curve"/>
      <point x="599" y="1412" type="line"/>
      <point x="739" y="1450" type="line"/>
      <point x="743" y="1486" type="line"/>
      <point x="161" y="1486" type="line"/>
      <point x="156" y="1450" type="line"/>
      <point x="250" y="1412" type="line"/>
      <point x="141" y="613" type="line" smooth="yes"/>
      <point x="133" y="553"/>
      <point x="128" y="500"/>
      <point x="128" y="449" type="curve"/>
      <point x="123" y="136"/>
      <point x="256" y="-20"/>
      <point x="583" y="-20" type="curve"/>
      <point x="958" y="-20"/>
      <point x="1045" y="232"/>
    </contour>
    <contour>
      <point x="1537" y="1748" type="curve"/>
      <point x="1319" y="1755" type="line"/>
      <point x="1302" y="1741"/>
      <point x="1296" y="1719"/>
      <point x="1296" y="1695" type="curve"/>
      <point x="1296" y="1623"/>
      <point x="1272" y="1466"/>
      <point x="1073" y="1465" type="curve"/>
      <point x="1126" y="1382" type="line"/>
      <point x="1309" y="1383"/>
      <point x="1532" y="1418"/>
      <point x="1536" y="1647" type="curve"/>
      <point x="1536" y="1696"/>
      <point x="1531" y="1726"/>
    </contour>
  </outline>
</glyph>
<glyph name="Ezh" format="1">
  <advance width="1041"/>
  <outline>
    <contour>
      <point x="656" y="1486" type="move" name="top"/>
    </contour>
    <contour>
      <point x="401" y="-18" type="curve"/>
      <point x="762" y="-18"/>
      <point x="1009" y="152"/>
      <point x="1012" y="408" type="curve"/>
      <point x="1016" y="626"/>
      <point x="862" y="774"/>
      <point x="658" y="774" type="curve"/>
      <point x="691" y="749" type="line"/>
      <point x="1123" y="1450" type="line"/>
      <point x="1117" y="1486" type="line"/>
      <point x="197" y="1486" type="line"/>
      <point x="133" y="1056" type="line"/>
      <point x="292" y="1056" type="line"/>
      <point x="430" y="1407" type="line"/>
      <point x="786" y="1431" type="line"/>
      <point x="674" y="1281" type="line"/>
      <point x="369" y="768" type="line"/>
      <point x="398" y="727" type="line"/>
      <point x="431" y="740"/>
      <point x="460" y="744"/>
      <point x="479" y="744" type="curve"/>
      <point x="596" y="745"/>
      <point x="660" y="665"/>
      <point x="656" y="432" type="curve"/>
      <point x="653" y="209"/>
      <point x="570" y="39"/>
      <point x="390" y="39" type="curve"/>
      <point x="329" y="39"/>
      <point x="270" y="59"/>
      <point x="225" y="105" type="curve"/>
      <point x="199" y="444" type="line"/>
      <point x="25" y="445" type="line"/>
      <point x="-22" y="89" type="line"/>
      <point x="44" y="70"/>
      <point x="144" y="-18"/>
    </contour>
  </outline>
</glyph>
<glyph name="Germandbls" format="1">
  <advance width="1329"/>
  <outline>
    <contour>
      <point x="795" y="-19" type="curve"/>
      <point x="1111" y="-19"/>
      <point x="1318" y="169"/>
      <point x="1323" y="467" type="curve"/>
      <point x="1325" y="653"/>
      <point x="1184" y="834"/>
      <point x="928" y="830" type="curve"/>
      <point x="1287" y="1287" type="line"/>
      <point x="1309" y="1416" type="line"/>
      <point x="1253" y="1447"/>
      <point x="1129" y="1501"/>
      <point x="919" y="1501" type="curve"/>
      <point x="440" y="1501"/>
      <point x="224" y="1221"/>
      <point x="174" y="851" type="curve"/>
      <point x="69" y="72" type="line"/>
      <point x="-46" y="39" type="line"/>
      <point x="-51" y="0" type="line"/>
      <point x="399" y="0" type="line"/>
      <point x="516" y="895" type="line" smooth="yes"/>
      <point x="549" y="1151"/>
      <point x="647" y="1452"/>
      <point x="901" y="1452" type="curve"/>
      <point x="998" y="1452"/>
      <point x="1068" y="1414"/>
      <point x="1098" y="1369" type="curve"/>
      <point x="701" y="828" type="line"/>
      <point x="691" y="788" type="line"/>
      <point x="885" y="751"/>
      <point x="981" y="660"/>
      <point x="978" y="449" type="curve"/>
      <point x="975" y="249"/>
      <point x="928" y="42"/>
      <point x="811" y="42" type="curve"/>
      <point x="756" y="42"/>
      <point x="718" y="63"/>
      <point x="717" y="176" type="curve"/>
      <point x="713" y="336" type="line"/>
      <point x="590" y="336" type="line"/>
      <point x="537" y="46" type="line"/>
      <point x="602" y="40"/>
      <point x="666" y="-19"/>
    </contour>
  </outline>
</glyph>
<glyph name="Schwa" format="1">
  <advance width="1214"/>
  <outline>
    <contour>
      <point x="518" y="-22" type="curve"/>
      <point x="938" y="-22"/>
      <point x="1198" y="370"/>
      <point x="1206" y="906" type="curve"/>
      <point x="1210" y="1181"/>
      <point x="1123" y="1505"/>
      <point x="724" y="1505" type="curve"/>
      <point x="478" y="1505"/>
      <point x="377" y="1413"/>
      <point x="285" y="1413" type="curve"/>
      <point x="241" y="1086" type="line"/>
      <point x="407" y="1086" type="line"/>
      <point x="495" y="1286" type="line" smooth="yes"/>
      <point x="521" y="1356"/>
      <point x="616" y="1448"/>
      <point x="702" y="1448" type="curve"/>
      <point x="895" y="1448"/>
      <point x="878" y="1111"/>
      <point x="874" y="867" type="curve"/>
      <point x="873" y="829"/>
      <point x="869" y="778"/>
      <point x="868" y="761" type="curve"/>
      <point x="130" y="761" type="line"/>
      <point x="111" y="707"/>
      <point x="86" y="582"/>
      <point x="84" y="468" type="curve"/>
      <point x="79" y="156"/>
      <point x="289" y="-22"/>
    </contour>
    <contour>
      <point x="524" y="34" type="curve"/>
      <point x="389" y="34"/>
      <point x="395" y="233"/>
      <point x="398" y="433" type="curve"/>
      <point x="399" y="501"/>
      <point x="416" y="622"/>
      <point x="431" y="695" type="curve"/>
      <point x="857" y="695" type="line"/>
      <point x="836" y="303"/>
      <point x="667" y="34"/>
    </contour>
  </outline>
</glyph>
